<?xml version="1.0" encoding="iso-8859-1"?>
<!-- Uploaded to: SVG Repo, www.svgrepo.com, Generator: SVG Repo Mixer Tools -->
<!DOCTYPE svg PUBLIC "-//W3C//DTD SVG 1.1//EN" "http://www.w3.org/Graphics/SVG/1.1/DTD/svg11.dtd">
<svg fill="#000000" height="800px" width="800px" version="1.1" id="Capa_1" xmlns="http://www.w3.org/2000/svg" xmlns:xlink="http://www.w3.org/1999/xlink" 
	 viewBox="0 0 323.218 323.218" xml:space="preserve">
<g>
	<path d="M281.734,319.58c0,2.009,1.629,3.638,3.638,3.638h9.97c2.009,0,3.638-1.629,3.638-3.638v-89.212h-17.246V319.58z"/>
	<path d="M154.734,319.58c0,2.009,1.629,3.638,3.638,3.638h9.97c2.009,0,3.638-1.629,3.638-3.638v-89.212h-17.246V319.58z"/>
	<path d="M307.989,192.367H145.725c-2.009,0-3.638,1.629-3.638,3.638v20.724c0,2.009,1.629,3.638,3.638,3.638h162.264
		c2.009,0,3.638-1.629,3.638-3.638v-20.724C311.627,193.996,309.998,192.367,307.989,192.367z"/>
	<path d="M126.653,118.917c-0.074-14.72-12.109-26.694-26.829-26.694H82.859c-29.593,19.881-22.675,15.234-25.532,17.152
		c0,11.028,0,69.565,0,82.425c0,2.505-2.03,4.535-4.535,4.535c-2.505,0-4.535-2.03-4.535-4.535c0-9.247,0-75.387,0-84.842
		c0-1.511,0.752-2.922,2.006-3.765c3.595-2.415,13.222-8.883,16.33-10.971H38.839c-14.72,0-26.755,11.975-26.829,26.694
		l-0.419,83.29c-0.031,6.261,5.019,11.362,11.28,11.393c0.02,0,0.038,0,0.058,0c6.234,0,11.305-5.038,11.336-11.28l0.419-83.29
		c0.007-1.241,1.016-2.242,2.256-2.238c1.24,0.004,2.243,1.01,2.243,2.25l0.006,190.571c0,7.514,6.091,13.605,13.604,13.605
		c7.514,0,13.604-6.091,13.604-13.605c0-9.441,0-87.121,0-105.705c0-1.678,1.36-3.038,3.038-3.038c1.567,0,2.836,1.27,2.836,2.836
		c0,18.206,0,96.413,0,105.907c0,7.514,6.091,13.605,13.604,13.605c7.514,0,13.604-6.091,13.604-13.605l-0.241-190.568
		c-0.002-1.307,1.055-2.369,2.362-2.373s2.371,1.05,2.378,2.358v0l0.418,83.29c0.031,6.242,5.101,11.28,11.336,11.28
		c0.019,0,0.039,0,0.058,0c6.262-0.031,11.312-5.133,11.28-11.393L126.653,118.917z M69.034,125.098
		c-2.505,0-4.535-2.03-4.535-4.535c0-2.505,2.03-4.535,4.535-4.535c2.505,0,4.535,2.03,4.535,4.535
		C73.569,123.067,71.539,125.098,69.034,125.098z M73.569,151.551c0,2.505-2.03,4.535-4.535,4.535c-2.505,0-4.535-2.03-4.535-4.535
		c0-2.505,2.03-4.535,4.535-4.535C71.539,147.016,73.569,149.046,73.569,151.551z M69.034,187.074c-2.505,0-4.535-2.03-4.535-4.535
		c0-2.505,2.03-4.535,4.535-4.535c2.505,0,4.535,2.03,4.535,4.535C73.569,185.044,71.539,187.074,69.034,187.074z M88.081,147.016
		c2.505,0,4.535,2.03,4.535,4.535c0,2.505-2.03,4.535-4.535,4.535c-2.504,0-4.535-2.03-4.535-4.535
		C83.546,149.046,85.576,147.016,88.081,147.016z M83.546,120.563c0-2.505,2.03-4.535,4.535-4.535c2.505,0,4.535,2.03,4.535,4.535
		c0,2.504-2.03,4.535-4.535,4.535C85.576,125.098,83.546,123.067,83.546,120.563z M88.081,178.004c2.505,0,4.535,2.03,4.535,4.535
		c0,2.505-2.03,4.535-4.535,4.535c-2.504,0-4.535-2.03-4.535-4.535C83.546,180.035,85.576,178.004,88.081,178.004z"/>
	<path d="M69.331,84.732c12.81,0,23.219-10.254,23.484-23H45.847C46.112,74.479,56.52,84.732,69.331,84.732z"/>
	<path d="M36.338,38.347c2.637,2.016,5.921,3.226,9.496,3.226v10.662h46.993V41.574c3.575,0,6.86-1.211,9.496-3.226
		c3.745-2.863,6.171-7.363,6.171-12.441c0-8.653-7.014-15.667-15.667-15.667c-3.1,0-5.982,0.912-8.415,2.466
		C83.027,5.47,76.673,0,69.034,0c-7.526,0-13.806,5.308-15.316,12.383c-2.318-1.354-5.006-2.144-7.884-2.144
		c-8.653,0-15.667,7.014-15.667,15.667C30.167,30.984,32.594,35.484,36.338,38.347z"/>
	<path d="M170.558,181.974h112.599c2.762,0,5-2.238,5-5c0-2.762-2.238-5-5-5H170.558c-2.762,0-5,2.238-5,5
		C165.558,179.735,167.796,181.974,170.558,181.974z"/>
	<path d="M184.995,160.743h83.724c2.009,0,3.638-1.629,3.638-3.638v-9.143c-4.127-0.06-7.999-1.686-10.924-4.611
		c-2.254-2.252-5.92-2.254-8.174,0.001c-6.151,6.151-16.163,6.153-22.314,0c-2.255-2.253-5.922-2.252-8.175,0
		c-6.152,6.152-16.162,6.152-22.314,0c-2.254-2.252-5.921-2.253-8.175,0c-3.017,3.017-6.961,4.545-10.923,4.603v9.15
		C181.357,159.115,182.986,160.743,184.995,160.743z"/>
	<path d="M196.367,131.66c4.216,0,8.178,1.642,11.158,4.622c2.253,2.251,5.919,2.253,8.174-0.001
		c6.154-6.151,16.165-6.151,22.315,0.001c2.255,2.252,5.919,2.252,8.174-0.001c6.152-6.152,16.162-6.152,22.314,0
		c1.036,1.036,2.4,1.611,3.854,1.67v-13.737c0-2.009-1.629-3.638-3.638-3.638h-83.724c-2.009,0-3.638,1.629-3.638,3.638v13.735
		c1.401-0.056,2.786-0.6,3.853-1.667C188.191,133.302,192.153,131.66,196.367,131.66z"/>
	<path d="M207.526,85.282c2.253,2.251,5.919,2.254,8.174-0.001c6.154-6.151,16.165-6.151,22.315,0.001
		c2.255,2.253,5.919,2.252,8.174-0.001c3.079-3.079,7.124-4.616,11.168-4.614v-8.221c0-2.009-1.629-3.638-3.638-3.638h-21.444
		l-0.418-40.902c0-2.762-2.238-5-5-5s-5,2.238-5,5l-0.418,40.902h-21.444c-2.009,0-3.638,1.629-3.638,3.638v8.214
		c0.003,0,0.007,0,0.01,0C200.583,80.66,204.545,82.302,207.526,85.282z"/>
	<path d="M199.995,108.976h53.724c2.009,0,3.638-1.629,3.638-3.638V90.663c-1.484-0.003-2.968,0.559-4.098,1.69
		c-6.151,6.152-16.163,6.152-22.314,0c-2.255-2.254-5.922-2.252-8.175,0c-6.152,6.152-16.162,6.152-22.314,0
		c-1.13-1.129-2.614-1.691-4.098-1.689v14.674C196.357,107.347,197.986,108.976,199.995,108.976z"/>
</g>
</svg>