<?xml version="1.0" ?><!DOCTYPE svg  PUBLIC '-//W3C//DTD SVG 1.1//EN'  'http://www.w3.org/Graphics/SVG/1.1/DTD/svg11.dtd'><svg enable-background="new 0 0 91 91" height="91px" id="Layer_1" version="1.1" viewBox="0 0 91 91" width="91px" xml:space="preserve" xmlns="http://www.w3.org/2000/svg" xmlns:xlink="http://www.w3.org/1999/xlink"><g><path d="M72.946,57.267c-16.091-1.438-21.616-12.57-21.616-12.57c-0.41-0.932-1.723-2.615-1.262-3.309   c0.832-1.266,3.942,1.299,10.044,1.299c9.468,0,15.146-6.314,16.688-9.682c-4.069,2.244-12.619,1.822-12.619,1.822   c4.625-1.264,10.654-12.059,10.936-14.723c-4.07,3.084-10.612,2.404-17.533,4.627c-1.82,0.588-3.428,1.539-4.842,2.656   c-3.914,3.1-6.133,7.91-7.594,8.658c-0.869,0.455-2.139,0.322-2.736-0.021c-0.703-0.41-0.887-1.293,0.127-2.813   c0.367,0,0.764-0.086,1.24-0.639c0.791-0.023,0.529-0.646,0.928-0.855c0.188-0.102,0.66-0.449,0.813-0.551   c0.162-0.104,0.442-0.682,0.557-0.768c0.342-0.262,0.027-0.463,0.299-0.877c0.156-0.244,0.617-0.568,0.707-0.873   c0.1-0.314,0.176-0.311,0.111-0.729c-0.064-0.377-0.182-0.637-0.029-1.006c0.127-0.287,0.273-0.635,0.351-0.828   c0.087-0.221-0.079-0.646-0.178-0.848c-0.364-0.742,0.353-0.371,0.473-1.051c0.097-0.518-0.563-0.695-0.642-1.115   c-0.088-0.479,0.389-0.602,0.512-0.977c0.043-0.123,0.01-0.494,0.01-0.633c0.002-0.742-0.576-1.004-0.447-1.729   c0.116-0.635,0.076-0.627-0.219-1.139c-0.229-0.396-0.103-0.459-0.174-0.896c-0.193-1.186-1.324-0.59-1.795-1.412   c-0.336-0.576-0.097-1.531-1.181-1.51c-0.161-0.965-1.496-0.857-2.177-1.031c-0.564-0.139-0.4-0.484-0.879-0.709   c-0.527-0.24-1.086,0.336-1.533,0.209c-0.552-0.15-0.713-0.727-1.443-0.645c-0.262,0.033-0.459,0.254-0.689,0.293   c-0.283,0.047-0.223-0.025-0.523-0.098c-0.639-0.168-1.02-0.154-1.592,0.207c-0.255,0.164-0.255,0.273-0.582,0.283   c-0.377,0.018-0.664-0.234-1.113-0.129c-0.854,0.199-1.037,0.732-1.376,1.402c-0.718-0.402-1.478-0.125-1.948,0.516   c-0.375,0.516-0.324,1.002-0.195,1.52c-0.07,0.082-0.154,0.158-0.213,0.25c-0.648-0.012-1.047-0.021-1.18,0.844   c-0.051,0.316-0.088,1.113,0.111,1.529c-0.385,1.697-0.104,3.18,0,3.406c0.17,0.381,0.061,0.768-0.178,1.314   c-0.246,0.543-1.184,0.9-1.513,1.531c-0.329,0.629,0.491,1.168,0.616,1.225c0.123,0.057-0.201,0.414-0.586,0.756   c-0.373,0.352-0.043,0.781,0.124,0.924c0.177,0.145,0.614,0.066,0.194,0.482c-0.426,0.42-0.197,0.873,0.098,0.947   c0.289,0.074,0.697,0.248,0.597,0.682c-0.099,0.439,0.101,1.301,0.864,1.672s1.988,0.508,2.693,0.541   c0.365,0.014,1.072,0.512,1.276,1.059c0.228,0.529,0.333,3.721-1.329,4.465c-1.73,0.387-3.809-0.537-5.166-2.676   c-0.278-0.656-1.002-1.709-0.568-2.68c0.202-0.453-0.219-0.381-0.994-0.154c-0.121-0.244-0.234-0.488-0.32-0.688   c-0.807-1.891-0.201-2.477,0.584-2.477c0.311,0,1.074,0,1.049-0.414c-0.028-0.459,0.133-1.111-0.211-1.189   c-0.393-0.086-0.957-0.143-1.695-0.158c-0.189-0.828-1.059-0.25-1.059-0.25c-0.348-0.979-0.91-0.068-0.91-0.068   c-0.562-0.91-1.053,0.205-1.053,0.205c-0.912-1.189-1.541,0.35-1.541,0.35c-4.418,0.422-7.926-0.135-9.609-2.238   s-3.08-2.525-3.293,3.576c-0.213,6.098,1.751,3.924,3.855,2.449c2.104-1.471,6.801-1.189,6.801-1.189   c1.6-0.115,3.494,0.498,3.314,2.547c-0.57-0.189-0.927-0.375-1.068-0.043c-0.215,0.492,0.264,1.051,0.157,2   c-0.103,0.92-0.253,1.432-0.259,1.467c-2.681,7.563,0.112,13.445,4.098,13.734c1.473,0.104,4.311-0.844,6.837-2.836   c2.764-2.189,3.26,0,3.474,1.26c0.206,1.258,1.678,12.201,9.254,27.66c3.367,6.885,7.568,12.52,9.887,12.941   c2.621,0.473,6.559-2.822,8.203-4.105c3.785-2.939,7.513-9.328,7.572-4.416c0.07,5.893,2.594,5.33,3.713,1.4   c0.894-3.111-1.857-6.479,0.497-7.08c2.451-0.629,1.704,6.756,3.997,4.143c2.942-3.371-1.053-8.773,1.469-11.084   c1.446-1.326,6.205-5.363,6.205-6.627C84.617,59.679,80.293,57.935,72.946,57.267z"/><path d="M11.336,13.097l-1.025,5.975l5.363-2.822l5.361,2.822l-1.025-5.975l4.342-4.225l-5.998-0.873l-2.68-5.434L12.99,7.999   L6.995,8.872L11.336,13.097z M14.209,10.515l1.463-2.967l1.465,2.967l3.277,0.48l-2.371,2.307l0.559,3.262l-2.93-1.539   l-2.928,1.539l0.561-3.262l-2.372-2.307L14.209,10.515z"/><polygon points="26.574,67.774 24.905,64.394 23.239,67.774 19.508,68.317 22.209,70.946 21.57,74.663 24.905,72.909    28.242,74.663 27.605,70.946 30.307,68.317  "/><polygon points="80.269,44.927 79.213,42.788 78.159,44.927 75.799,45.271 77.507,46.933 77.104,49.282 79.213,48.175    81.323,49.282 80.92,46.933 82.629,45.271  "/><circle cx="60.621" cy="13.462" r="1.861"/></g></svg>